<svg width="60" height="64" viewBox="0 0 60 64" fill="none" xmlns="http://www.w3.org/2000/svg">
<g clip-path="url(#clip0_122_56)">
<path d="M31.335 17.1868C34.3998 17.1868 36.8934 19.8465 36.8934 23.1157C36.8934 26.3848 34.3999 29.0447 31.335 29.0447C28.27 29.0447 25.7766 26.385 25.7766 23.1157C25.7767 19.8463 28.2701 17.1868 31.335 17.1868ZM31.335 26.8597C33.2703 26.8597 34.8451 25.1801 34.8451 23.1156C34.8451 21.051 33.2704 19.3715 31.335 19.3715C29.3996 19.3715 27.8249 21.0512 27.8249 23.1156C27.825 25.1801 29.3997 26.8597 31.335 26.8597Z" fill="#F29714"/>
<path d="M7.02237 15.3806C9.0311 15.3806 10.6654 17.1239 10.6654 19.2665C10.6654 21.4092 9.0311 23.1524 7.02237 23.1524C5.01364 23.1524 3.37933 21.4092 3.37933 19.2665C3.37945 17.1239 5.01376 15.3806 7.02237 15.3806ZM7.02237 20.9675C7.90163 20.9675 8.61707 20.2044 8.61707 19.2665C8.61707 18.3286 7.90175 17.5655 7.02237 17.5655C6.14299 17.5655 5.42767 18.3286 5.42767 19.2665C5.42779 20.2045 6.1431 20.9675 7.02237 20.9675Z" fill="#F29714"/>
<path d="M4.12527 4.92494L19.0187 4.92432C21.2935 4.92432 23.1441 6.89896 23.1441 9.3261V14.3414H29.2853C29.2867 14.3414 29.2878 14.3413 29.2893 14.3413H51.6513C51.6538 14.3413 51.6564 14.3414 51.6592 14.3414H55.623C58.0365 14.3414 60 16.4359 60 19.0102V47.0621C60 49.6365 58.0365 51.7309 55.623 51.7309H39.9412L41.3239 57.722C41.3251 57.7271 41.3256 57.7324 41.3266 57.7375C41.3322 57.7637 41.3367 57.7904 41.3406 57.8174C41.3424 57.8304 41.3447 57.8432 41.3462 57.8564C41.349 57.8822 41.3503 57.9086 41.3513 57.9354C41.3519 57.9487 41.3531 57.9624 41.3532 57.9759C41.3532 57.9785 41.3536 57.981 41.3536 57.9835C41.3536 58.0161 41.3517 58.0484 41.3491 58.0802C41.3488 58.0844 41.349 58.0885 41.3485 58.0926C41.3449 58.1326 41.3388 58.1721 41.3312 58.2109C41.3302 58.2159 41.3287 58.2206 41.3277 58.2257C41.3205 58.2591 41.3122 58.292 41.3024 58.3241C41.2995 58.3332 41.296 58.3424 41.293 58.3515C41.2837 58.379 41.2738 58.4061 41.2625 58.4326C41.2578 58.4435 41.2528 58.4544 41.2477 58.4651C41.2365 58.4892 41.2247 58.513 41.212 58.5361C41.2057 58.5475 41.1995 58.5587 41.1928 58.5699C41.1794 58.5922 41.165 58.6139 41.1501 58.6351C41.1451 58.6424 41.1409 58.6502 41.1355 58.6575C41.1331 58.6605 41.1304 58.6634 41.1281 58.6664C41.11 58.6904 41.0909 58.7131 41.0711 58.7354C41.0659 58.7414 41.0611 58.7477 41.0556 58.7536C41.0301 58.7809 41.0035 58.8065 40.9755 58.8306C40.9681 58.837 40.9604 58.8426 40.9529 58.8489C40.9316 58.8664 40.9099 58.8832 40.8874 58.899C40.8777 58.9057 40.8676 58.9119 40.8576 58.9182C40.8362 58.9321 40.8144 58.9454 40.7918 58.9574C40.7813 58.963 40.7709 58.9682 40.7604 58.9735C40.7373 58.985 40.714 58.9954 40.6899 59.005C40.6794 59.0092 40.669 59.0135 40.6584 59.0174C40.6336 59.0264 40.6082 59.034 40.5827 59.041C40.5723 59.0439 40.5622 59.0471 40.5519 59.0495C40.5248 59.0559 40.4974 59.0607 40.4695 59.0646C40.4602 59.0659 40.4511 59.068 40.4416 59.0691C40.4047 59.0734 40.3673 59.076 40.3295 59.076H27.9826H19.8766C19.3108 59.076 18.8523 58.5869 18.8523 57.9835C18.8523 57.3802 19.3108 56.8911 19.8766 56.8911H26.676L25.4852 51.7313L7.57307 51.7307C5.41364 51.7307 3.65663 49.8574 3.65663 47.5546V38.1046C1.60173 37.8553 -0.000114441 35.9904 -0.000114441 33.733V9.32573C-0.000465393 6.89896 1.85041 4.92494 4.12527 4.92494ZM17.819 9.32573C17.819 8.10397 16.8871 7.10996 15.7416 7.10996H4.12527C2.97975 7.10983 2.04787 8.10384 2.04787 9.32573V10.6136H17.819V9.32573ZM17.8191 12.7983H2.04799V30.1225H2.53772L7.69155 24.073C7.88573 23.8452 8.161 23.7152 8.44952 23.7152C8.73804 23.7152 9.01332 23.8451 9.2075 24.073L10.6707 25.7902L14.3043 21.5268C14.4983 21.2992 14.7736 21.1692 15.0621 21.1692C15.3505 21.1692 15.6258 21.2991 15.8199 21.5269L17.819 23.873L17.8191 12.7983ZM5.30547 30.1225H6.97846L9.28648 27.4145L8.44952 26.4321L5.30547 30.1225ZM17.8189 27.0341L17.7782 27.0735L15.0619 23.8858L9.74645 30.1225H17.8189V27.0341ZM21.0958 9.32623C21.0958 8.21234 20.3213 7.29021 19.3175 7.13496C19.6664 7.78071 19.8674 8.52834 19.8674 9.32585V33.7328C19.8674 34.5297 19.6668 35.2772 19.318 35.9226C20.3216 35.7669 21.0959 34.8457 21.0959 33.7328V9.32623H21.0958ZM53.5194 38.9293L45.2803 29.8968L34.3271 42.7474H53.5194V38.9293ZM36.2667 37.2223L33.8058 34.3339L26.6382 42.7471H31.5591V42.7472L36.2667 37.2223ZM55.0927 49.5459H55.623C56.907 49.546 57.9517 48.4318 57.9517 47.0621V19.0102C57.9517 17.6405 56.907 16.5263 55.623 16.5263H55.0927C55.3954 17.1188 55.5677 17.7978 55.5677 18.5185V47.5541C55.5677 48.2749 55.3956 48.9535 55.0927 49.5459ZM28.7852 56.8907H39.0226L37.8318 51.7309H27.5945L28.7852 56.8907ZM5.70462 47.5544C5.70462 48.6523 6.54263 49.5455 7.57272 49.5455H51.6513C52.6813 49.5455 53.5194 48.6524 53.5194 47.5544V44.9323H5.70462V47.5544ZM5.70462 42.7474H23.8705L33.0477 31.975C33.2419 31.7473 33.5171 31.6173 33.8057 31.6173C34.0942 31.6173 34.3695 31.7472 34.5636 31.975L37.6508 35.5984L44.4973 27.5677C44.6873 27.3449 44.9552 27.2155 45.2377 27.2105C45.5229 27.2095 45.7921 27.325 45.989 27.541L53.5192 35.7964V18.5187C53.5192 17.4214 52.6833 16.5287 51.6551 16.5264H23.144V33.7328C23.144 36.1591 21.2934 38.1331 19.0186 38.1331L5.7045 38.1334V42.7474H5.70462ZM2.04787 33.7327C2.04787 34.9546 2.97975 35.9486 4.12527 35.9486L15.7495 35.9482C16.8914 35.9436 17.8191 34.9517 17.8191 33.7327V32.3074H2.04799V33.7327H2.04787Z" fill="#F29714"/>
</g>
<defs>
<clipPath id="clip0_122_56">
<rect width="60" height="64" fill="white" transform="matrix(-1 0 0 1 60 0)"/>
</clipPath>
</defs>
</svg>
